Coordinates
version=1
nRows=18
nColumns=22
inDegrees=yes

Units are S.I. units (second, meters, Newtons, ...)
If the header above contains a line with 'inDegrees', this indicates whether rotational values are in degrees (yes) or radians (no).

endheader
time	pelvis_tilt	pelvis_list	pelvis_rotation	pelvis_tx	pelvis_ty	pelvis_tz	hip_flexion_r	hip_adduction_r	hip_rotation_r	knee_angle_r	ankle_angle_r	subtalar_angle_r	hip_flexion_l	hip_adduction_l	hip_rotation_l	knee_angle_l	ankle_angle_l	subtalar_angle_l	lumbar_extension	lumbar_bending	lumbar_rotation
      2.80000000	      7.99630802	     -1.58643149	    -48.50037184	      0.04002741	      0.89542909	     -0.11136918	     23.49634165	     -4.91706515	    -11.16009122	    -43.93396690	     16.50990801	    -15.71590008	     -8.58930143	      2.80042756	     -8.81045425	    -18.59595679	     20.04708322	     -2.72624688	    -14.80929492	     -2.63630403	     -2.14289095
      2.81000000	      7.99883742	     -2.00075617	    -48.39046218	      0.04654731	      0.89475452	     -0.10512139	     22.89137078	     -5.00186627	    -13.16998076	    -40.73930747	     16.53473167	    -15.01702544	     -9.72510045	      2.54683156	     -8.87344704	    -18.33870856	     20.40318131	     -2.63107849	    -15.12710503	     -2.31862433	     -2.45409754
      2.82000000	      8.00560373	     -2.43345608	    -48.24278496	      0.05302313	      0.89403706	     -0.09870824	     22.17371791	     -5.01350504	    -15.32416010	    -37.49301288	     16.50530989	    -14.13050633	    -10.86088877	      2.25094664	     -8.95160431	    -18.12351082	     20.73110485	     -2.48269571	    -15.44863661	     -1.99958029	     -2.77030649
      2.83000000	      8.00907073	     -2.87865841	    -48.06196950	      0.05942571	      0.89327723	     -0.09212033	     21.37898007	     -4.92549614	    -17.57514957	    -34.23721658	     16.43148403	    -13.18175359	    -11.98538777	      1.91002625	     -9.02920065	    -17.95002217	     21.03837051	     -2.29723061	    -15.76567605	     -1.68071083	     -3.08812006
      2.84000000	      7.99585529	     -3.30830497	    -47.86043500	      0.06571844	      0.89242811	     -0.08536301	     20.58082931	     -4.73065487	    -19.84544197	    -31.03749331	     16.31026914	    -12.08312533	    -13.04908838	      1.52923587	     -9.13259198	    -17.84685719	     21.31865164	     -2.05727742	    -16.04651342	     -1.37296468	     -3.42207635
      2.85000000	      7.96125371	     -3.70639960	    -47.65489681	      0.07187356	      0.89147399	     -0.07843395	     19.83303474	     -4.42613572	    -22.03726626	    -27.95610327	     16.17359957	    -10.94150735	    -14.03771627	      1.12385239	     -9.24912864	    -17.80715884	     21.57251717	     -1.79072659	    -16.27770621	     -1.08783278	     -3.74384706
      2.86000000	      7.90115206	     -4.05600952	    -47.46136905	      0.07787220	      0.89039171	     -0.07134467	     19.18799326	     -4.02779432	    -24.05479473	    -25.05856559	     16.04173531	     -9.85210474	    -14.93165131	      0.71311054	     -9.33914259	    -17.83737675	     21.83162295	     -1.52097919	    -16.44661981	     -0.83687508	     -4.02735404
      2.87000000	      7.80766754	     -4.32858107	    -47.28581236	      0.08374023	      0.88916079	     -0.06410271	     18.69826721	     -3.57303968	    -25.81470793	    -22.41024121	     15.92110723	     -8.64600586	    -15.69003858	      0.30638833	     -9.47465133	    -17.95832281	     22.00989470	     -1.22451392	    -16.52021452	     -0.62317769	     -4.34218363
      2.88000000	      7.68199428	     -4.51368378	    -47.14200894	      0.08951182	      0.88778120	     -0.05669028	     18.39254322	     -3.10936379	    -27.28838695	    -20.08894972	     15.80240450	     -7.43203493	    -16.31461755	     -0.07513438	     -9.62276701	    -18.16338353	     22.11580268	     -0.93073433	    -16.48726852	     -0.45804363	     -4.65297146
      2.89000000	      7.54046283	     -4.65597194	    -47.00820375	      0.09521971	      0.88634811	     -0.04912497	     18.19191790	     -2.63584775	    -28.44878554	    -18.07490270	     15.77239260	     -6.51178419	    -16.86270603	     -0.44277565	     -9.68678531	    -18.43013164	     22.24888406	     -0.70001019	    -16.40456578	     -0.31450534	     -4.94482118
      2.90000000	      7.36697466	     -4.72893319	    -46.90181910	      0.10094228	      0.88485424	     -0.04137156	     18.13522216	     -2.20174446	    -29.32837032	    -16.43030967	     15.75501605	     -5.58853083	    -17.30516392	     -0.79055520	     -9.76584464	    -18.76137088	     22.21278528	     -0.47238521	    -16.22097337	     -0.18756986	     -5.25312344
      2.91000000	      7.16950042	     -4.78013422	    -46.79501897	      0.10669684	      0.88336948	     -0.03345466	     18.14142278	     -1.79226882	    -29.95512258	    -15.11862685	     15.80936302	     -5.01418260	    -17.68124916	     -1.14403751	     -9.75115664	    -19.16198297	     22.19871333	     -0.31676390	    -15.99182597	     -0.04518567	     -5.54897732
      2.92000000	      6.93787940	     -4.77202947	    -46.71290977	      0.11250256	      0.88187840	     -0.02533004	     18.24784380	     -1.44135764	    -30.33241448	    -14.16606406	     15.87281457	     -4.76738190	    -17.95259334	     -1.48122614	     -9.71906334	    -19.63923106	     21.97362387	     -0.26820041	    -15.66540533	      0.09133503	     -5.84776152
      2.93000000	      6.70809749	     -4.83421037	    -46.62083341	      0.11847463	      0.88056397	     -0.01694850	     18.26111275	     -1.08634906	    -30.58270105	    -13.49175312	     15.98520923	     -4.44705794	    -18.30257775	     -1.86121296	     -9.59957207	    -20.10191957	     21.78649633	     -0.11549598	    -15.36770798	      0.30964499	     -6.18281946
      2.94000000	      6.46447251	     -4.85792878	    -46.56207556	      0.12449828	      0.87929729	     -0.00834397	     18.31400820	     -0.79387052	    -30.66997872	    -13.14046611	     16.08761718	     -4.40971985	    -18.56273819	     -2.21906144	     -9.45572614	    -20.67218245	     21.36283470	     -0.07997307	    -15.01146042	      0.51710877	     -6.46727967
      2.95000000	      6.19267227	     -4.92234492	    -46.48500608	      0.13068902	      0.87814716	      0.00053054	     18.28746240	     -0.48587727	    -30.73439054	    -12.99636886	     16.19872563	     -4.57099541	    -18.80767222	     -2.63470554	     -9.23789773	    -21.31320557	     20.93064321	      0.03405961	    -14.63116751	      0.80554945	     -6.78628183
      2.96000000	      5.90304845	     -4.99066392	    -46.42540227	      0.13697902	      0.87708572	      0.00966430	     18.23517219	     -0.19641628	    -30.78911927	    -13.09463076	     16.25665389	     -4.97223568	    -18.99517097	     -3.06399128	     -8.97729776	    -22.05614956	     20.33072260	      0.10904570	    -14.21568476	      1.12465876	     -7.07975403
      2.97000000	      5.59551751	     -5.06957574	    -46.38417123	      0.14338623	      0.87611488	      0.01907863	     18.13678827	      0.09465844	    -30.86438560	    -13.37597522	     16.27796244	     -5.66261993	    -19.13750200	     -3.51059929	     -8.68085448	    -22.88609169	     19.60650142	      0.19537509	    -13.76333671	      1.48366538	     -7.37385477
